<?xml version="1.0" encoding="UTF-8"?><svg xmlns="http://www.w3.org/2000/svg" viewBox="0 0 367.58 71.08"><defs><style>.cls-1{fill:#34bf91;}.cls-1,.cls-2,.cls-3,.cls-4{stroke-width:0px;}.cls-2{fill:#080535;}.cls-3{fill:#193d81;}.cls-4{fill:#989ea8;}</style></defs><g id="Final_versions"><path class="cls-2" d="M143.92,39.15c-.5-.63-1.08-1.13-1.73-1.5h.04c-.6-.34-.6-1.2,0-1.55h-.04c.51-.33.96-.75,1.35-1.24.79-1,1.19-2.25,1.19-3.73,0-1.27-.32-2.4-.97-3.41-.65-1-1.6-1.78-2.86-2.34-1.26-.56-2.75-.84-4.49-.84h-10.55v25.56h11.02c1.73,0,3.23-.29,4.5-.88,1.27-.59,2.24-1.4,2.91-2.44.67-1.04,1.01-2.24,1.01-3.61,0-1.51-.46-2.86-1.39-4.03ZM131,28.68h4.69c1.22,0,2.16.28,2.82.84.66.56.99,1.36.99,2.38s-.33,1.81-.99,2.36c-.66.55-1.6.82-2.82.82h-4.69v-6.41ZM139.07,45.05c-.7.59-1.67.88-2.91.88h-5.16v-6.88h5.05c1.25,0,2.23.31,2.97.93.73.62,1.1,1.48,1.1,2.58s-.35,1.9-1.04,2.49Z"/><path class="cls-2" d="M188.62,26.11c2.04,1.05,3.61,2.54,4.72,4.49,1.11,1.94,1.67,4.19,1.67,6.76s-.56,4.8-1.67,6.72c-1.11,1.92-2.69,3.4-4.72,4.45-2.04,1.05-4.4,1.57-7.09,1.57h-8.93v-25.56h8.93c2.69,0,5.05.53,7.09,1.57ZM187.58,43.54c1.46-1.47,2.2-3.53,2.2-6.19s-.73-4.74-2.2-6.24c-1.47-1.5-3.54-2.25-6.22-2.25h-3.63v16.88h3.63c2.69,0,4.76-.73,6.22-2.2Z"/><path class="cls-2" d="M96.08,42.08h-2.82c-1.17,0-1.98.6-2.85,1.64-.4.44-.86.81-1.38,1.1-1.06.61-2.29.92-3.68.92-1.49,0-2.81-.35-3.97-1.04-1.16-.7-2.06-1.68-2.71-2.95-.65-1.27-.97-2.76-.97-4.47s.32-3.2.97-4.47c.65-1.27,1.55-2.25,2.71-2.95,1.16-.7,2.48-1.04,3.97-1.04,1.39,0,2.62.31,3.68.92.51.3.97.66,1.38,1.1.87,1.05,1.67,1.64,2.85,1.64h2.82c.69,0,1.05-.75.79-1.36,0,0,0,0,0,0-.89-1.94-2.21-3.52-3.97-4.71-2.15-1.46-4.65-2.2-7.51-2.2-2.44,0-4.64.56-6.61,1.67-1.97,1.11-3.52,2.66-4.65,4.65-1.13,1.99-1.7,4.24-1.7,6.76s.57,4.77,1.7,6.76c1.14,1.99,2.69,3.54,4.65,4.65,1.96,1.11,4.17,1.67,6.61,1.67,2.86,0,5.36-.73,7.51-2.2,1.75-1.2,3.08-2.77,3.97-4.71,0,0,0,0,0,0,.26-.62-.1-1.36-.79-1.36Z"/><path class="cls-2" d="M120.31,24.53h-4.14c-.28,0-.51.23-.51.51v15.32c0,1.73-.45,3.06-1.35,3.97-.9.92-2.19,1.37-3.84,1.37s-2.91-.46-3.81-1.37c-.9-.92-1.35-2.24-1.35-3.97v-15.31c0-.28-.23-.51-.51-.51h-4.11c-.28,0-.51.23-.51.51v15.27c0,2.17.45,4.01,1.35,5.51.9,1.5,2.13,2.63,3.68,3.39,1.55.76,3.28,1.14,5.18,1.14s3.68-.38,5.25-1.14c1.57-.76,2.83-1.89,3.77-3.39.94-1.5,1.41-3.34,1.41-5.51v-15.28c0-.28-.23-.51-.51-.51Z"/><path class="cls-2" d="M167.02,28.68c.29,0,.53-.24.53-.53v-3.11c0-.29-.24-.53-.53-.53h-16.65v25.6h16.65c.29,0,.53-.24.53-.53v-3.11c0-.29-.24-.53-.53-.53h-11.53v-6.77h9.67c.29,0,.52-.24.52-.52v-3.02c0-.29-.24-.52-.52-.52h-9.67v-6.41h11.53Z"/><path class="cls-1" d="M15.45,13.95L34.17,3.24c2.36-1.35,5.26-1.35,7.61,0l18.72,10.71c1.8,1.03,1.8,3.63,0,4.66l-18.72,10.71c-2.36,1.35-5.26,1.35-7.61,0l-18.72-10.71c-1.8-1.03-1.8-3.63,0-4.66Z"/><path class="cls-2" d="M24.81,60.03l-18.64-10.85c-2.35-1.37-3.8-3.88-3.81-6.59l-.08-21.57c0-2.07,2.24-3.37,4.03-2.33l18.64,10.85c2.35,1.37,3.8,3.88,3.81,6.59l.08,21.57c0,2.07-2.24,3.37-4.03,2.33Z"/><path class="cls-3" d="M60.03,28.88l-.08,21.57c-.01,2.72-1.46,5.23-3.81,6.59l-18.64,10.85c-1.79,1.04-4.04-.25-4.03-2.33l.08-21.57c.01-2.72,1.46-5.23,3.81-6.59l18.64-10.85c1.79-1.04,4.04.25,4.03,2.33Z"/></g><g id="Icons"><path class="cls-4" d="M217.18,37.21c-1.44,1.34-3.6,2.01-6.48,2.01h-5.16v10.9h-2.56v-25.57h7.72c2.85,0,5.01.67,6.46,2.01,1.45,1.34,2.18,3.12,2.18,5.34s-.72,3.96-2.16,5.3ZM216.71,31.9c0-1.71-.48-3-1.43-3.88-.95-.88-2.48-1.32-4.57-1.32h-5.16v10.32h5.16c4,0,6-1.71,6-5.12Z"/><path class="cls-4" d="M236.23,50.12l-6.33-10.68h-4.72v10.68h-2.56v-25.57h7.68c2.85,0,5.02.68,6.49,2.05,1.48,1.37,2.21,3.16,2.21,5.38,0,1.85-.53,3.43-1.59,4.74-1.06,1.3-2.63,2.15-4.7,2.54l6.59,10.87h-3.07ZM225.18,37.36h5.16c2,0,3.51-.49,4.52-1.46,1.01-.98,1.52-2.28,1.52-3.91s-.49-2.98-1.46-3.9c-.98-.92-2.51-1.37-4.61-1.37h-5.12v10.65Z"/><path class="cls-4" d="M248.14,48.72c-1.93-1.11-3.44-2.66-4.55-4.65-1.11-1.99-1.66-4.24-1.66-6.75s.55-4.76,1.66-6.75c1.11-1.99,2.63-3.54,4.55-4.65,1.93-1.11,4.07-1.66,6.44-1.66s4.55.56,6.48,1.66c1.93,1.11,3.44,2.66,4.54,4.65,1.1,1.99,1.65,4.24,1.65,6.75s-.55,4.76-1.65,6.75c-1.1,1.99-2.61,3.54-4.54,4.65-1.93,1.11-4.09,1.66-6.48,1.66s-4.51-.55-6.44-1.66ZM259.71,46.83c1.51-.88,2.71-2.14,3.59-3.79.88-1.65,1.32-3.55,1.32-5.73s-.44-4.07-1.32-5.71c-.88-1.63-2.07-2.89-3.59-3.77-1.51-.88-3.22-1.32-5.12-1.32s-3.61.44-5.12,1.32c-1.51.88-2.71,2.14-3.59,3.77-.88,1.63-1.32,3.54-1.32,5.71s.44,4.08,1.32,5.73c.88,1.65,2.07,2.91,3.59,3.79,1.51.88,3.22,1.32,5.12,1.32s3.61-.44,5.12-1.32Z"/><path class="cls-4" d="M285.12,37.21c-1.44,1.34-3.6,2.01-6.48,2.01h-5.16v10.9h-2.56v-25.57h7.72c2.85,0,5.01.67,6.46,2.01,1.45,1.34,2.18,3.12,2.18,5.34s-.72,3.96-2.16,5.3ZM284.64,31.9c0-1.71-.48-3-1.43-3.88-.95-.88-2.48-1.32-4.57-1.32h-5.16v10.32h5.16c4,0,6-1.71,6-5.12Z"/><path class="cls-4" d="M293.12,26.64v9.55h9.7v2.12h-9.7v9.7h10.79v2.12h-13.35v-25.61h13.35v2.12h-10.79Z"/><path class="cls-4" d="M321.57,50.12l-6.33-10.68h-4.72v10.68h-2.56v-25.57h7.68c2.85,0,5.02.68,6.49,2.05,1.48,1.37,2.21,3.16,2.21,5.38,0,1.85-.53,3.43-1.59,4.74-1.06,1.3-2.63,2.15-4.7,2.54l6.59,10.87h-3.07ZM310.52,37.36h5.16c2,0,3.51-.49,4.52-1.46s1.52-2.28,1.52-3.91-.49-2.98-1.46-3.9c-.98-.92-2.51-1.37-4.61-1.37h-5.12v10.65Z"/><path class="cls-4" d="M343.4,24.55v2.12h-7.1v23.45h-2.56v-23.45h-7.13v-2.12h16.79Z"/><path class="cls-4" d="M364.36,24.55l-8.2,15.62v9.95h-2.56v-9.95l-8.27-15.62h2.89l6.66,13.28,6.62-13.28h2.85Z"/></g></svg>